# xmcd
#
# Track frame offsets:
#	150
#	14941
#	29119
#	41429
#	59588
#	79327
#	91840
#	110059
#	125948
#	142263
#	156930
#	170023
#	179990
#	192015
#	204034
#	221353
#	235246
#	255002
#	267115
#	281464
#	295763
#
# Disc length: 4178 seconds
#
# Revision: 1
# Processed by: cddbd v1.5.2PL0 Copyright (c) Steve Scherf et al.
# Submitted via: audiograbber 1.82.02
#
DISCID=44105015
DTITLE=Various Artist - The Balladeers Vol 1
DYEAR=1999
DGENRE=Country
TTITLE0=Keith Jamieson - The Year 2000 Bushman
TTITLE1=Shane Warren - The Old Draught Horse
TTITLE2=Terry Gordon - The Wilde Brown Plains Near Hay
TTITLE3=Camp Oven Country - Camp Oven Country
TTITLE4=Katrina Hannigan - When They Go
TTITLE5=Bill Bedford - The Man With The Hat Turned Down
TTITLE6=Tom McIvor - Motheaten Memories
TTITLE7=Big Mal Coad - Green Vales Three Rivers Hotel
TTITLE8=Rick Hopkins - It Was Only A Simply Picture
TTITLE9=Ted Kittel - I Felt Them Walk Beside Me
TTITLE10=John Vaughan - Sing Me A Song Mr Williams
TTITLE11=Nev Molloy - Losing My Blues Tonight
TTITLE12=Bluey Francis - One Last Look
TTITLE13=Glenn Jones - Hitting The Top Rail
TTITLE14=Joe Daley - Of Days That Were
TTITLE15=Peter Coad - First Days Dawn
TTITLE16=Cliff Berry - Modern Day Swaggies
TTITLE17=Coad Sisters - High In The Saddle
TTITLE18=Buddy Thomson - Who Fought For Him
TTITLE19=Reg Poole - Save The Bush Ballad
TTITLE20=Shorty Ranger - Out Wher The Westerlies Blow
EXTD=
EXTT0=
EXTT1=
EXTT2=
EXTT3=
EXTT4=
EXTT5=
EXTT6=
EXTT7=
EXTT8=
EXTT9=
EXTT10=
EXTT11=
EXTT12=
EXTT13=
EXTT14=
EXTT15=
EXTT16=
EXTT17=
EXTT18=
EXTT19=
EXTT20=
PLAYORDER=
